<?xml version="1.0" encoding="UTF-8" standalone="no"?>
<svg width="290px" height="61px" viewBox="0 0 290 61" version="1.1" xmlns="http://www.w3.org/2000/svg" xmlns:xlink="http://www.w3.org/1999/xlink">
    <!-- Generator: Sketch 3.7.2 (28276) - http://www.bohemiancoding.com/sketch -->
    <title>Group 2 Copy</title>
    <desc>Created with Sketch.</desc>
    <defs></defs>
    <g id="Page-1" stroke="none" stroke-width="1" fill="none" fill-rule="evenodd">
        <g id="Desktop-HD-Copy-2" transform="translate(-322.000000, -38.000000)">
            <g id="Group-2-Copy" transform="translate(322.000000, 38.000000)">
                <path d="M116.208734,54.4629119 C111.765944,52.8955329 108.582885,48.6663471 108.582885,43.6951017 C108.582885,38.9455149 111.488418,34.873289 115.62213,33.1526568 L115.62213,25.2368311 L117.733904,25.2368311 L117.733904,20.2892534 L119.259073,20.2892534 L119.259073,7.63487198 L120.784243,7.63487198 L120.784243,20.2892534 L122.309413,20.2892534 L122.309413,25.2368311 L124.773149,25.2368311 L124.773149,33.3061748 C128.718877,35.1070045 131.460431,39.0814867 131.460431,43.6951017 C131.460431,48.6663471 128.277373,52.8955329 123.834583,54.4629119 L123.834583,60.5139084 C134.976633,58.0772227 143.317843,48.1503357 143.317843,36.2748289 C143.317843,31.3216081 142.114308,25.7121495 138.975117,21.3045045 C130.162312,8.93070548 116.751778,0.0338949605 116.751778,0.0338949605 C116.751778,0.0338949605 116.751777,4.16708935 109.020088,11.0106245 C104.032896,15.424928 99.4454371,20.1446929 97.8540807,22.5332256 C95.2329991,26.4673154 93.7053346,31.1926306 93.7053346,36.2748289 C93.7053346,49.2013026 103.588246,59.8189941 116.208734,60.9810077 L116.208734,54.4629119 Z" id="Combined-Shape" fill="#FFFFFF"></path>
                <path d="M146.831952,52.4706775 L146.831952,11.0280115 L159.847043,11.0280115 C164.713191,11.0280115 168.318022,12.101645 170.661645,14.2489441 C173.041048,16.4499257 174.230732,19.2950544 174.230732,22.7844155 C174.230732,27.9737217 171.654574,30.7830626 166.502183,31.2125224 C169.436184,31.6419823 171.587454,32.6082524 172.956058,34.1113618 C174.324662,35.6144712 175.008954,37.779632 175.008954,40.6069092 C175.008954,44.1678469 173.85505,47.0308694 171.547208,49.1960627 C169.257256,51.3791502 166.242794,52.4706775 162.503732,52.4706775 L146.831952,52.4706775 Z M158.022247,43.4789074 C158.23693,43.4968015 158.424775,43.510222 158.585787,43.519169 C158.746799,43.5281161 158.880974,43.5325896 158.988316,43.5325896 C160.383755,43.5325896 161.497406,43.1657648 162.329303,42.4321043 C163.1612,41.6984438 163.577142,40.7142798 163.577142,39.4795828 C163.577142,38.2448858 163.1612,37.2786156 162.329303,36.5807434 C161.497406,35.8828712 160.35692,35.5339403 158.90781,35.5339403 L158.022247,35.5339403 L158.022247,43.4789074 Z M158.022247,27.1326745 L158.773634,27.1326745 C160.115402,27.1326745 161.175384,26.8195314 161.95361,26.1932358 C162.731836,25.5669402 163.120943,24.6901396 163.120943,23.5628075 C163.120943,21.1649902 161.806029,19.9660995 159.176162,19.9660995 C159.050931,19.9660995 158.894393,19.9705729 158.706546,19.97952 C158.518698,19.9884671 158.290601,20.0018875 158.022247,20.0197817 L158.022247,27.1326745 Z M176.121722,52.4706775 L176.121722,11.0280115 L196.919032,11.0280115 L196.919032,20.7713326 L187.312016,20.7713326 L187.312016,26.8105812 L195.926128,26.8105812 L195.926128,36.1781268 L187.312016,36.1781268 L187.312016,42.5126276 L196.919032,42.5126276 L196.919032,52.4706775 L176.121722,52.4706775 Z M227.496893,52.4706775 L215.3942,52.4706775 L209.86614,37.7080698 C209.81247,37.4575516 209.718547,37.1265146 209.58437,36.7149489 C209.450194,36.3033833 209.284711,35.8113013 209.087918,35.2386882 L209.168424,37.9764809 L209.168424,52.4706775 L198.0318,52.4706775 L198.0318,11.0280115 L209.490447,11.0280115 C214.535497,11.0280115 218.310283,12.0211225 220.814918,14.0073742 C223.999382,16.5483448 225.591591,20.1629108 225.591591,24.8511806 C225.591591,29.8615452 223.453738,33.3240131 219.177968,35.2386882 L227.496893,52.4706775 Z M209.222095,30.2194016 L209.973481,30.2194016 C211.261579,30.2194016 212.334978,29.7273196 213.19371,28.7431408 C214.052442,27.758962 214.481802,26.5063896 214.481802,24.9853861 C214.481802,21.8896965 212.862758,20.3418749 209.624623,20.3418749 L209.222095,20.3418749 L209.222095,30.2194016 Z M244.77256,52.4706775 L227.536251,52.4706775 L227.536251,11.0280115 L238.726546,11.0280115 L238.726546,42.5126276 L244.77256,42.5126276 L244.77256,52.4706775 Z M257.979935,52.4706775 L246.789641,52.4706775 L246.789641,11.0280115 L257.979935,11.0280115 L257.979935,52.4706775 Z M260.112442,52.4706775 L260.112442,11.0280115 L270.792868,11.0280115 L276.401433,25.5758904 C276.705567,26.4348101 277.049949,27.4189741 277.434589,28.5284119 C277.81923,29.6378498 278.244117,30.917263 278.709263,32.3666899 L279.863179,36.0170802 C279.451703,32.4203542 279.138628,29.3426049 278.923945,26.7837401 C278.709262,24.2248753 278.601922,22.0776084 278.601922,20.3418749 L278.601922,11.0280115 L289.282348,11.0280115 L289.282348,52.4706775 L278.601922,52.4706775 L272.966522,37.2249299 C272.376144,35.5965614 271.843917,34.0711072 271.369825,32.6485215 C270.895734,31.2259359 270.479792,29.8704736 270.121987,28.5820942 C270.35456,31.4988421 270.524515,34.0397747 270.631856,36.204968 C270.739198,38.3701612 270.792868,40.2669137 270.792868,41.8952822 L270.792868,52.4706775 L260.112442,52.4706775 Z" id="DUG-BERLIN" fill="#000000"></path>
                <path d="M0.275765467,53.2222285 L0.275765467,11.7795625 L9.93645161,11.7795625 C15.4645385,11.7795625 19.7670789,13.2647554 22.8442017,16.2351859 C26.887398,20.1182185 28.9089658,25.5490144 28.9089658,32.5277366 C28.9089658,39.3990938 27.2004726,44.7046325 23.7834351,48.4445118 C20.8673245,51.6296722 16.5200592,53.2222285 10.7415088,53.2222285 L0.275765467,53.2222285 Z M11.4660603,43.2104963 C15.473476,43.0136606 17.4771539,39.5601396 17.4771539,32.8498298 C17.4771539,29.5394103 16.9672894,26.9269023 15.9475452,25.0122272 C14.927801,23.079658 13.5502725,22.1133879 11.8149184,22.1133879 L11.4660603,22.1133879 L11.4660603,43.2104963 Z M46.9279345,11.7795625 L58.1182293,11.7795625 L58.1182293,41.090049 C58.1182293,43.5415489 57.7335947,45.5277708 56.964314,47.0487743 C56.2129235,48.6413545 54.9606249,50.0818128 53.2073805,51.3701922 C50.8458676,53.0880315 47.9745257,53.9469383 44.5932687,53.9469383 C40.7647554,53.9469383 37.5535038,52.9985621 34.9594177,51.1017812 C31.6676119,48.6860697 30.0217337,44.8209892 30.0217337,39.5064239 L30.0217337,11.7795625 L41.2120285,11.7795625 L41.2120285,38.513303 C41.2120285,40.3206131 41.4311808,41.6000263 41.8694919,42.351581 C42.307803,43.1031357 43.0457647,43.4789074 44.0833991,43.4789074 C45.156814,43.4789074 45.8992482,43.1299765 46.310724,42.4321043 C46.7221997,41.6984438 46.9279345,40.4011367 46.9279345,38.5401441 L46.9279345,11.7795625 Z M74.6612598,29.2531218 L90.279369,29.2531218 L90.279369,30.9709525 C90.279369,38.9517476 89.0896853,44.6956866 86.7102822,48.2029419 C84.1161961,52.032292 80.2787953,53.9469383 75.1979646,53.9469383 C70.2065851,53.9469383 66.2886793,52.0680797 63.4441298,48.3103063 C60.6174704,44.5167445 59.2041619,39.3096222 59.2041619,32.6887832 C59.2041619,25.9784734 60.6264154,20.6908286 63.470965,16.8256902 C66.3155146,12.9605518 70.2065854,11.0280115 75.1442941,11.0280115 C81.6921252,11.0280115 86.4419151,14.4457447 89.3938061,21.2813136 L78.5523695,25.2537971 C78.3913572,23.9475235 78.0201401,22.9141513 77.438707,22.1536495 C76.857274,21.3931478 76.1282572,21.0129026 75.251635,21.0129026 C72.1745122,21.0129026 70.6359739,25.2448078 70.6359739,33.7087452 C70.6359739,37.3054712 70.9758835,39.9179793 71.655713,41.5463478 C72.3355424,43.1747163 73.4178863,43.9888884 74.9027769,43.9888884 C75.4931551,43.9888884 76.0298546,43.8457373 76.5128913,43.5594307 C76.995928,43.2731241 77.4029251,42.8705116 77.7338947,42.351581 C78.0648643,41.8326504 78.324269,41.2018907 78.5121166,40.4592831 C78.6999642,39.7166755 78.7938866,38.889083 78.7938866,37.9764809 L74.6612598,37.9764809 L74.6612598,29.2531218 Z" id="Combined-Shape" fill="#000000"></path>
            </g>
        </g>
    </g>
</svg>